<svg width="700" height="89" viewBox="0 0 700 89" fill="none" xmlns="http://www.w3.org/2000/svg">
  <g id="lumus">
    <path d="M83.1736 1.30145V50.6664C83.1736 65.5727 87.8801 69.689 98.6245 69.689C109.369 69.689 114.194 65.5727 114.194 50.6664V1.30145H134.905V53.6174C134.905 76.3779 122.697 88.197 98.6245 88.197C74.5518 88.197 62.344 76.499 62.344 53.6174V1.30145H83.1736Z" fill="#1E1E1C"/>
    <path d="M139.414 1.30145H177.263L189.695 60.5635L201.006 1.30145H238.078V86.1389H217.248V21.3531H215.785L200.888 86.1389H177.935L161.812 21.3531H160.243V86.1389H139.414V1.30145Z" fill="#1E1E1C"/>
    <path d="M263.403 1.30145V50.6664C263.403 65.5727 268.109 69.689 278.854 69.689C289.598 69.689 294.423 65.5727 294.423 50.6664V1.30145H315.134V53.6174C315.134 76.3779 302.927 88.197 278.854 88.197C254.781 88.197 242.573 76.499 242.573 53.6174V1.30145H263.403Z" fill="#1E1E1C"/>
    <path d="M355.251 70.9602C365.112 70.9602 368.804 67.1012 368.804 61.1841C368.804 55.2669 365.772 53.345 359.958 52.6943L341.923 50.6361C328.041 49.0925 319.973 41.6318 319.973 27.1189C319.973 11.0473 330.941 0 354.355 0C377.768 0 387.841 11.3046 388.842 27.7696H368.58C367.789 19.6733 363.095 16.4651 354.355 16.4651C345.614 16.4651 340.697 19.9306 340.697 25.5904C340.697 29.964 343.043 33.3085 348.976 33.9441L364.875 35.6238C381.895 37.4247 389.515 43.8564 389.515 59.2772C389.515 76.1206 379.996 87.4252 354.803 87.4252C329.61 87.4252 320.54 74.0625 319.643 57.4764H339.576C340.143 65.83 344.388 70.9753 355.251 70.9753V70.9602Z" fill="#1E1E1C"/>
    <path d="M23.7695 2.33051L0 69.1594H20.7242L44.4938 2.33051H23.7695Z" fill="#1E1E1C"/>
    <path d="M20.7242 69.1594V87.1528H55.5677V69.1594H20.7242Z" fill="#40AE64"/>
  </g>

  <g id="tech" transform="translate(410, 0)">
    <path d="M7.58041 9.2616V1.28635H73.3256V9.2616H44.9814V86.1541H36.1355V9.2616H7.56721H7.58041Z" fill="#1E1E1C"/>
    <path d="M137.397 78.1788V86.1541H80.3788V1.30145H136.948V9.27675H89.238V38.2117H130.12V46.187H89.238V78.2091H137.397V78.1788Z" fill="#1E1E1C"/>
    <path d="M181.192 87.4404C155.089 87.4404 142.775 68.9323 142.775 43.2056C142.775 17.479 155.207 0 181.31 0C203.036 0 214.466 11.4408 217.604 30.5996H208.639C205.845 15.0425 196.656 8.09634 181.31 8.09634C162.274 8.09634 152.083 20.1878 152.083 43.1905C152.083 66.1932 162.05 79.3138 181.205 79.3138C197.223 79.3138 206.741 70.9602 208.982 54.4951H218.052C215.482 74.5468 203.828 87.4101 181.205 87.4101L181.192 87.4404Z" fill="#1E1E1C"/>
    <path d="M234.07 1.28635V38.3176H280.779V1.28635H289.743V86.1389H280.779V46.2778H234.07V86.1389H225.105V1.28635H234.07Z" fill="#1E1E1C"/>
    <path d="M17.1647 66.4354H1.52588e-05V86.1389H17.1647V66.4354Z" fill="#40AE64"/>
  </g>
</svg>
